<svg width="25" height="25" viewBox="0 0 25 25" fill="none" xmlns="http://www.w3.org/2000/svg">
<path d="M21.2767 12.7083L12.5027 4.49487L3.72333 12.7117V24.4528C3.72333 24.7561 3.95515 24.9993 4.24203 24.9993H9.72868V19.8513C9.72868 19.5481 9.95881 19.3031 10.2457 19.3031H14.754C15.0409 19.3031 15.271 19.5481 15.271 19.8513V24.9993H20.7593C21.0462 24.9993 21.1146 25.0409 21.2763 24.4528V12.7077L21.2767 12.7083Z" fill="#17baaa"/>
<path d="M12.4515 0L0 11.6534L1.3116 13.2174L12.5026 2.74314L23.6909 13.2174L25 11.6534L12.5512 0L12.5028 0.0592239L12.4518 0H12.4515Z" fill="#17baaa"/>
</svg>
