<svg width="165" height="31" viewBox="0 0 165 31" fill="none" xmlns="http://www.w3.org/2000/svg">
<path d="M5.74444 28.724C5.31777 28.724 4.9871 28.6067 4.75244 28.372C4.5391 28.116 4.43244 27.7747 4.43244 27.348V7.092C4.43244 6.644 4.5391 6.30267 4.75244 6.068C4.9871 5.83333 5.31777 5.716 5.74444 5.716C6.1711 5.716 6.4911 5.83333 6.70444 6.068C6.9391 6.30267 7.05644 6.644 7.05644 7.092V15.924H20.5924V7.092C20.5924 6.644 20.6991 6.30267 20.9124 6.068C21.1471 5.83333 21.4778 5.716 21.9044 5.716C22.3311 5.716 22.6511 5.83333 22.8644 6.068C23.0991 6.30267 23.2164 6.644 23.2164 7.092V27.348C23.2164 27.7747 23.0991 28.116 22.8644 28.372C22.6511 28.6067 22.3311 28.724 21.9044 28.724C21.4778 28.724 21.1471 28.6067 20.9124 28.372C20.6991 28.116 20.5924 27.7747 20.5924 27.348V18.196H7.05644V27.348C7.05644 27.7747 6.94977 28.116 6.73644 28.372C6.5231 28.6067 6.19244 28.724 5.74444 28.724ZM34.6642 28.788C33.4482 28.788 32.4242 28.5747 31.5922 28.148C30.7815 27.7 30.1735 27.06 29.7682 26.228C29.3629 25.3747 29.1602 24.34 29.1602 23.124V14.964H27.0162C26.6535 14.964 26.3762 14.8787 26.1842 14.708C25.9922 14.516 25.8962 14.26 25.8962 13.94C25.8962 13.62 25.9922 13.3747 26.1842 13.204C26.3762 13.0333 26.6535 12.948 27.0162 12.948H29.1602V9.268C29.1602 8.84133 29.2775 8.52133 29.5122 8.308C29.7469 8.07333 30.0669 7.956 30.4722 7.956C30.8775 7.956 31.1869 8.07333 31.4002 8.308C31.6349 8.52133 31.7522 8.84133 31.7522 9.268V12.948H35.7842C36.1469 12.948 36.4242 13.0333 36.6162 13.204C36.8082 13.3747 36.9042 13.62 36.9042 13.94C36.9042 14.26 36.8082 14.516 36.6162 14.708C36.4242 14.8787 36.1469 14.964 35.7842 14.964H31.7522V22.868C31.7522 24.084 32.0082 25.012 32.5202 25.652C33.0322 26.2707 33.8642 26.58 35.0162 26.58C35.4215 26.58 35.7629 26.5373 36.0402 26.452C36.3389 26.3667 36.5842 26.324 36.7762 26.324C36.9682 26.3027 37.1282 26.3667 37.2562 26.516C37.3842 26.6653 37.4482 26.9213 37.4482 27.284C37.4482 27.54 37.3949 27.7747 37.2882 27.988C37.2029 28.2013 37.0429 28.3507 36.8082 28.436C36.5522 28.5213 36.2109 28.596 35.7842 28.66C35.3789 28.7453 35.0055 28.788 34.6642 28.788ZM40.9557 28.724C40.529 28.724 40.209 28.6067 39.9957 28.372C39.7824 28.1373 39.6757 27.8067 39.6757 27.38V14.036C39.6757 13.6093 39.7824 13.2893 39.9957 13.076C40.209 12.8413 40.5184 12.724 40.9237 12.724C41.329 12.724 41.6384 12.8413 41.8517 13.076C42.0864 13.2893 42.2037 13.6093 42.2037 14.036V16.852L41.8517 16.404C42.257 15.2093 42.9077 14.292 43.8037 13.652C44.721 12.9907 45.809 12.66 47.0677 12.66C48.3904 12.66 49.457 12.98 50.2677 13.62C51.0997 14.2387 51.6544 15.2093 51.9317 16.532H51.4517C51.8357 15.3373 52.5184 14.3987 53.4997 13.716C54.5024 13.012 55.665 12.66 56.9877 12.66C58.161 12.66 59.121 12.884 59.8677 13.332C60.6357 13.78 61.2117 14.4627 61.5957 15.38C61.9797 16.276 62.1717 17.4173 62.1717 18.804V27.38C62.1717 27.8067 62.0544 28.1373 61.8197 28.372C61.6064 28.6067 61.2864 28.724 60.8597 28.724C60.4544 28.724 60.1344 28.6067 59.8997 28.372C59.6864 28.1373 59.5797 27.8067 59.5797 27.38V18.932C59.5797 17.5027 59.3344 16.4573 58.8437 15.796C58.353 15.1133 57.521 14.772 56.3477 14.772C55.0677 14.772 54.0544 15.22 53.3077 16.116C52.5824 16.9907 52.2197 18.1853 52.2197 19.7V27.38C52.2197 27.8067 52.1024 28.1373 51.8677 28.372C51.6544 28.6067 51.3344 28.724 50.9077 28.724C50.5024 28.724 50.1824 28.6067 49.9477 28.372C49.7344 28.1373 49.6277 27.8067 49.6277 27.38V18.932C49.6277 17.5027 49.3717 16.4573 48.8597 15.796C48.369 15.1133 47.5477 14.772 46.3957 14.772C45.1157 14.772 44.1024 15.22 43.3557 16.116C42.6304 16.9907 42.2677 18.1853 42.2677 19.7V27.38C42.2677 28.276 41.8304 28.724 40.9557 28.724ZM71.7539 28.788C70.2179 28.788 69.0446 28.3187 68.2339 27.38C67.4233 26.4413 67.0179 25.0973 67.0179 23.348V7.028C67.0179 6.60133 67.1246 6.28133 67.3379 6.068C67.5513 5.83333 67.8713 5.716 68.2979 5.716C68.7033 5.716 69.0233 5.83333 69.2579 6.068C69.4926 6.28133 69.6099 6.60133 69.6099 7.028V23.156C69.6099 24.308 69.8339 25.172 70.2819 25.748C70.7513 26.3027 71.4339 26.58 72.3299 26.58C72.5219 26.58 72.6926 26.5693 72.8419 26.548C72.9913 26.5267 73.1406 26.516 73.2899 26.516C73.5246 26.4947 73.6846 26.548 73.7699 26.676C73.8766 26.804 73.9299 27.06 73.9299 27.444C73.9299 27.828 73.8446 28.116 73.6739 28.308C73.5033 28.5 73.2259 28.628 72.8419 28.692C72.6713 28.7133 72.4899 28.7347 72.2979 28.756C72.1059 28.7773 71.9246 28.788 71.7539 28.788Z" fill="#E54F26"/>
<path d="M91.2552 28.716C90.1352 28.716 89.1672 28.54 88.3512 28.188C87.5352 27.82 86.9112 27.316 86.4792 26.676C86.0632 26.036 85.8552 25.292 85.8552 24.444C85.8552 23.9 85.9272 23.404 86.0712 22.956C86.2152 22.492 86.4312 22.06 86.7192 21.66C87.0232 21.244 87.3992 20.844 87.8472 20.46C88.2952 20.076 88.8152 19.684 89.4072 19.284L90.1752 18.78L89.9112 19.188C89.1432 18.356 88.5992 17.636 88.2792 17.028C87.9752 16.404 87.8232 15.764 87.8232 15.108C87.8232 14.372 87.9912 13.724 88.3272 13.164C88.6632 12.588 89.1432 12.148 89.7672 11.844C90.4072 11.524 91.1432 11.364 91.9752 11.364C93.0952 11.364 94.0072 11.676 94.7112 12.3C95.4152 12.908 95.7672 13.74 95.7672 14.796C95.7672 15.372 95.6552 15.916 95.4312 16.428C95.2072 16.924 94.8312 17.428 94.3032 17.94C93.7752 18.436 93.0392 18.964 92.0952 19.524L92.1432 19.02L96.6312 24.06H96.1992C96.4232 23.676 96.6152 23.236 96.7752 22.74C96.9512 22.244 97.0952 21.708 97.2072 21.132C97.3352 20.54 97.4232 19.916 97.4712 19.26C97.5032 18.988 97.5912 18.78 97.7352 18.636C97.8792 18.492 98.0872 18.42 98.3592 18.42C98.6312 18.42 98.8392 18.5 98.9832 18.66C99.1272 18.82 99.1832 19.052 99.1512 19.356C99.0872 20.156 98.9752 20.916 98.8152 21.636C98.6552 22.356 98.4472 23.028 98.1912 23.652C97.9352 24.26 97.6472 24.82 97.3272 25.332L97.3032 24.756L99.6792 27.372C99.8872 27.58 99.9832 27.788 99.9672 27.996C99.9672 28.188 99.8872 28.348 99.7272 28.476C99.5832 28.604 99.3832 28.668 99.1272 28.668C98.9032 28.668 98.7192 28.62 98.5752 28.524C98.4312 28.444 98.2632 28.316 98.0712 28.14L96.2472 26.076H96.7512C96.0792 26.908 95.2712 27.556 94.3272 28.02C93.3832 28.484 92.3592 28.716 91.2552 28.716ZM91.3512 27.108C92.2632 27.108 93.0712 26.916 93.7752 26.532C94.4952 26.148 95.1192 25.588 95.6472 24.852L95.6232 25.452L90.5352 19.884L91.3032 19.956L90.5592 20.436C89.8712 20.884 89.3192 21.308 88.9032 21.708C88.5032 22.092 88.2152 22.492 88.0392 22.908C87.8632 23.324 87.7752 23.788 87.7752 24.3C87.7752 25.18 88.0792 25.868 88.6872 26.364C89.2952 26.86 90.1832 27.108 91.3512 27.108ZM91.9752 12.876C91.2872 12.876 90.7272 13.076 90.2952 13.476C89.8632 13.876 89.6472 14.404 89.6472 15.06C89.6472 15.412 89.6952 15.74 89.7912 16.044C89.9032 16.332 90.0952 16.66 90.3672 17.028C90.6392 17.38 91.0152 17.836 91.4952 18.396L90.9912 18.42C91.7592 17.924 92.3672 17.492 92.8152 17.124C93.2632 16.74 93.5832 16.372 93.7752 16.02C93.9672 15.668 94.0632 15.292 94.0632 14.892C94.0632 14.268 93.8712 13.78 93.4872 13.428C93.1032 13.06 92.5992 12.876 91.9752 12.876Z" fill="black"/>
<path d="M123.864 28.788C121.646 28.788 119.747 28.3187 118.168 27.38C116.59 26.4413 115.374 25.108 114.52 23.38C113.688 21.652 113.272 19.5933 113.272 17.204C113.272 15.412 113.507 13.812 113.976 12.404C114.467 10.9747 115.16 9.76933 116.056 8.788C116.974 7.78533 118.094 7.01733 119.416 6.484C120.739 5.92933 122.222 5.652 123.864 5.652C125.187 5.652 126.446 5.844 127.64 6.228C128.835 6.59067 129.87 7.13467 130.744 7.86C131.022 8.07333 131.203 8.31867 131.288 8.596C131.395 8.852 131.406 9.108 131.32 9.364C131.256 9.59867 131.128 9.80133 130.936 9.972C130.766 10.1213 130.552 10.196 130.296 10.196C130.04 10.196 129.752 10.0893 129.432 9.876C128.664 9.25733 127.822 8.79867 126.904 8.5C125.987 8.20133 124.995 8.052 123.928 8.052C122.243 8.052 120.814 8.41467 119.64 9.14C118.467 9.844 117.582 10.8787 116.984 12.244C116.387 13.6093 116.088 15.2627 116.088 17.204C116.088 19.1453 116.387 20.8093 116.984 22.196C117.582 23.5613 118.467 24.6067 119.64 25.332C120.814 26.036 122.243 26.388 123.928 26.388C124.974 26.388 125.966 26.2387 126.904 25.94C127.843 25.62 128.707 25.1507 129.496 24.532C129.816 24.3187 130.104 24.2227 130.36 24.244C130.616 24.244 130.83 24.3187 131 24.468C131.171 24.6173 131.288 24.8093 131.352 25.044C131.438 25.2787 131.438 25.524 131.352 25.78C131.288 26.036 131.128 26.26 130.872 26.452C129.976 27.22 128.92 27.8067 127.704 28.212C126.51 28.596 125.23 28.788 123.864 28.788ZM140.219 28.788C139.259 28.788 138.288 28.6707 137.307 28.436C136.347 28.2013 135.451 27.796 134.619 27.22C134.406 27.0707 134.256 26.9 134.171 26.708C134.086 26.4947 134.054 26.292 134.075 26.1C134.118 25.8867 134.203 25.7053 134.331 25.556C134.48 25.4067 134.651 25.3213 134.843 25.3C135.056 25.2573 135.291 25.3 135.547 25.428C136.379 25.94 137.179 26.3027 137.947 26.516C138.736 26.708 139.515 26.804 140.283 26.804C141.499 26.804 142.416 26.58 143.035 26.132C143.654 25.684 143.963 25.076 143.963 24.308C143.963 23.7107 143.76 23.2413 143.355 22.9C142.95 22.5373 142.31 22.26 141.435 22.068L138.523 21.428C137.179 21.1507 136.176 20.6707 135.515 19.988C134.875 19.3053 134.555 18.42 134.555 17.332C134.555 16.372 134.8 15.5507 135.291 14.868C135.803 14.164 136.518 13.62 137.435 13.236C138.352 12.852 139.419 12.66 140.635 12.66C141.574 12.66 142.459 12.788 143.291 13.044C144.144 13.2787 144.912 13.6627 145.595 14.196C145.808 14.3453 145.947 14.5267 146.011 14.74C146.096 14.932 146.107 15.1347 146.043 15.348C146 15.54 145.904 15.7107 145.755 15.86C145.606 15.988 145.424 16.0627 145.211 16.084C144.998 16.1053 144.774 16.0413 144.539 15.892C143.899 15.4653 143.248 15.156 142.587 14.964C141.926 14.7507 141.275 14.644 140.635 14.644C139.44 14.644 138.534 14.8787 137.915 15.348C137.296 15.8173 136.987 16.436 136.987 17.204C136.987 17.8013 137.179 18.292 137.563 18.676C137.947 19.06 138.544 19.3373 139.355 19.508L142.267 20.116C143.654 20.4147 144.688 20.8947 145.371 21.556C146.075 22.196 146.427 23.0707 146.427 24.18C146.427 25.588 145.862 26.708 144.731 27.54C143.6 28.372 142.096 28.788 140.219 28.788ZM155.625 28.788C154.665 28.788 153.695 28.6707 152.713 28.436C151.753 28.2013 150.857 27.796 150.025 27.22C149.812 27.0707 149.663 26.9 149.577 26.708C149.492 26.4947 149.46 26.292 149.481 26.1C149.524 25.8867 149.609 25.7053 149.737 25.556C149.887 25.4067 150.057 25.3213 150.249 25.3C150.463 25.2573 150.697 25.3 150.953 25.428C151.785 25.94 152.585 26.3027 153.353 26.516C154.143 26.708 154.921 26.804 155.689 26.804C156.905 26.804 157.823 26.58 158.441 26.132C159.06 25.684 159.369 25.076 159.369 24.308C159.369 23.7107 159.167 23.2413 158.761 22.9C158.356 22.5373 157.716 22.26 156.841 22.068L153.929 21.428C152.585 21.1507 151.583 20.6707 150.921 19.988C150.281 19.3053 149.961 18.42 149.961 17.332C149.961 16.372 150.207 15.5507 150.697 14.868C151.209 14.164 151.924 13.62 152.841 13.236C153.759 12.852 154.825 12.66 156.041 12.66C156.98 12.66 157.865 12.788 158.697 13.044C159.551 13.2787 160.319 13.6627 161.001 14.196C161.215 14.3453 161.353 14.5267 161.417 14.74C161.503 14.932 161.513 15.1347 161.449 15.348C161.407 15.54 161.311 15.7107 161.161 15.86C161.012 15.988 160.831 16.0627 160.617 16.084C160.404 16.1053 160.18 16.0413 159.945 15.892C159.305 15.4653 158.655 15.156 157.993 14.964C157.332 14.7507 156.681 14.644 156.041 14.644C154.847 14.644 153.94 14.8787 153.321 15.348C152.703 15.8173 152.393 16.436 152.393 17.204C152.393 17.8013 152.585 18.292 152.969 18.676C153.353 19.06 153.951 19.3373 154.761 19.508L157.673 20.116C159.06 20.4147 160.095 20.8947 160.777 21.556C161.481 22.196 161.833 23.0707 161.833 24.18C161.833 25.588 161.268 26.708 160.137 27.54C159.007 28.372 157.503 28.788 155.625 28.788Z" fill="#0C73B8"/>
</svg>
